<svg version="1.1" id="Layer_1" xmlns="http://www.w3.org/2000/svg" xmlns:xlink="http://www.w3.org/1999/xlink" x="0px" y="0px"
	 width="100%" viewBox="0 0 291 76" enable-background="new 0 0 291 76" xml:space="preserve">
<path fill="#FCFCFC" opacity="1.000000" stroke="none" 
	d="
M200.000000,77.000000 
	C133.333344,77.000000 67.166687,77.000000 1.000027,77.000000 
	C1.000018,51.666683 1.000018,26.333366 1.000009,1.000037 
	C97.999969,1.000025 194.999939,1.000025 291.999939,1.000012 
	C291.999939,26.333296 291.999939,51.666592 291.999969,76.999939 
	C261.500000,77.000000 231.000000,77.000000 200.000000,77.000000 
M237.874115,29.359201 
	C237.294342,29.103645 236.714584,28.848089 235.607773,28.070286 
	C234.406738,28.039169 233.205704,28.008053 231.211365,27.728111 
	C227.809189,27.811357 224.407028,27.894602 220.575287,27.572798 
	C215.655441,28.890455 212.966248,32.426235 210.643372,37.298744 
	C210.970169,40.181568 211.296951,43.064396 211.749420,46.680870 
	C215.841125,54.409134 222.860550,57.281509 231.771362,55.754322 
	C241.053879,54.163425 248.634476,40.453453 240.198975,31.415163 
	C239.534027,30.915007 238.869095,30.414848 237.874115,29.359201 
M271.490692,26.518318 
	C271.005981,26.498827 270.521240,26.479336 269.509888,26.229603 
	C268.981720,26.365622 268.453583,26.501640 267.177429,26.536566 
	C265.176880,26.999414 263.167511,27.884729 261.177521,27.842995 
	C255.970764,27.733797 250.772491,27.219557 245.031311,27.000984 
	C245.323669,27.680853 245.616013,28.360723 246.728363,29.142698 
	C247.654160,30.160830 249.356064,31.161428 249.379517,32.199940 
	C249.529297,38.829906 249.309723,45.468216 248.693481,52.208313 
	C248.461548,52.466396 248.229630,52.724480 247.243027,53.222095 
	C244.308319,55.770782 246.777069,56.062401 248.602676,56.096977 
	C253.383240,56.187527 258.168427,56.033237 263.761932,56.026321 
	C264.297668,55.953587 264.833435,55.880852 266.242767,55.994614 
	C271.724304,55.994614 277.205872,55.994614 281.457367,55.994614 
	C280.583466,52.115925 279.646973,49.247887 279.350403,46.315128 
	C278.983551,42.687927 279.422119,38.973412 278.979584,35.361946 
	C278.715698,33.208302 277.429016,31.179985 276.437744,28.616760 
	C275.620331,28.413111 274.802917,28.209461 273.556854,27.756220 
	C273.027039,27.533619 272.497253,27.311016 271.490692,26.518318 
M166.043335,37.691967 
	C166.043335,37.691967 165.990021,37.735657 166.439835,38.377483 
	C169.052444,39.690346 171.876511,39.479317 172.610733,36.664108 
	C173.158920,34.562252 172.558426,30.802586 171.075485,29.755585 
	C163.065796,24.100569 150.354721,24.706118 146.690659,37.664696 
	C147.232635,41.174427 147.774597,44.684158 148.535065,48.914425 
	C152.185272,54.603008 158.771927,57.585052 163.879593,55.861515 
	C170.485138,53.632530 174.002823,49.910561 173.615875,46.856991 
	C170.163208,47.803047 166.596451,48.780357 162.847748,49.085625 
	C162.084015,48.932774 161.320282,48.779922 160.493011,48.616638 
	C160.493011,48.616638 160.447006,48.571598 160.760666,47.744614 
	C160.152512,44.158710 159.544357,40.572803 158.853867,36.203644 
	C159.591583,32.626572 160.464325,29.174095 165.183334,30.186237 
	C165.210663,30.478994 165.237976,30.771749 164.548798,31.876465 
	C164.374542,32.564339 164.200302,33.252213 163.755020,34.368404 
	C164.167664,35.252785 164.580307,36.137169 165.212936,37.485821 
	C165.212936,37.485821 165.615921,37.775097 165.615921,37.775097 
	C165.615921,37.775097 166.107513,37.717087 166.043335,37.691967 
M39.047050,14.010859 
	C34.694859,14.021784 30.342665,14.032708 25.062237,13.973393 
	C22.235727,13.953508 19.393925,14.110928 16.586580,13.868827 
	C13.082782,13.566665 11.936292,14.917681 12.026675,18.412012 
	C12.237272,26.553944 12.093084,34.705048 12.093211,42.852432 
	C12.093314,49.503361 12.041281,56.154884 12.116654,62.804966 
	C12.155701,66.249878 12.257960,66.248718 15.888576,66.034279 
	C16.586100,66.026512 17.283625,66.018753 18.548706,66.635117 
	C31.021383,66.716049 43.494061,66.796989 56.879326,66.941338 
	C66.544617,66.992821 64.947365,67.707924 65.010017,58.706837 
	C65.097900,46.082291 65.032974,33.456680 65.031944,20.831524 
	C65.031372,13.902252 65.030006,13.902252 57.036915,14.007400 
	C51.347816,14.024816 45.658722,14.042231 39.047050,14.010859 
M196.379776,55.909779 
	C196.565430,55.482510 196.751083,55.055237 197.674835,54.412930 
	C201.136627,56.831039 209.302185,56.928146 212.083740,54.964500 
	C208.797668,50.123520 205.730301,45.152550 202.201263,40.534348 
	C198.744781,36.011051 201.091232,32.897068 204.329666,30.128735 
	C205.784500,28.885094 207.999634,28.530823 211.104156,27.272778 
	C204.966934,27.272778 200.114563,27.272778 195.262192,27.272778 
	C195.189972,27.534267 195.117752,27.795759 195.045547,28.057249 
	C196.550842,28.714094 198.056152,29.370939 199.930374,30.188766 
	C197.816116,32.799938 195.766983,35.330685 193.039825,37.977978 
	C192.591507,38.019829 192.143188,38.061684 191.802795,37.159344 
	C191.797272,29.839773 191.782791,22.520189 191.792297,15.200637 
	C191.794785,13.290922 191.969574,11.294622 188.088043,11.886476 
	C184.181290,11.886476 180.274551,11.886476 176.367798,11.886476 
	C176.326889,12.214281 176.285980,12.542087 176.245056,12.869891 
	C177.811188,13.742612 179.377304,14.615333 180.686203,16.300365 
	C180.764038,19.684183 180.841873,23.068003 180.717972,27.477095 
	C180.785156,28.167072 180.852325,28.857050 180.700577,30.286415 
	C181.195145,34.192856 182.018478,38.093586 182.086502,42.007442 
	C182.147537,45.518620 181.377853,49.044243 180.292603,52.871841 
	C179.087646,53.121391 177.882690,53.370941 175.965088,53.861385 
	C176.333298,54.505562 176.701492,55.149738 177.967484,56.021240 
	C183.929230,55.990829 189.890961,55.960415 196.379776,55.909779 
M93.579254,48.648243 
	C93.710693,50.947296 93.842140,53.246346 93.968338,55.453716 
	C102.900261,57.352146 103.265182,57.079281 104.687469,47.759365 
	C106.195259,47.224930 107.703049,46.690491 109.210846,46.156055 
	C109.152473,45.781471 109.094101,45.406887 109.035736,45.032303 
	C107.444023,44.475334 105.852310,43.918365 104.214149,43.345142 
	C104.214149,38.262829 104.333199,33.427761 104.148232,28.604351 
	C104.085274,26.962749 103.239105,23.954531 102.781143,23.960346 
	C100.487106,23.989464 97.483070,24.075350 96.042580,25.484497 
	C90.365112,31.038445 85.179993,37.095688 79.145798,43.127716 
	C78.632751,44.343384 78.119713,45.559055 77.606674,46.774727 
	C78.780296,47.199951 79.942047,47.947643 81.129707,47.991344 
	C85.060188,48.135983 89.000015,48.026684 93.579254,48.648243 
M117.250114,31.121584 
	C111.154732,36.929314 110.743759,46.081696 117.296074,51.492733 
	C120.456818,54.102940 125.353996,56.022247 129.334488,55.809864 
	C132.932449,55.617901 136.352921,52.098972 139.851654,50.047131 
	C139.617584,49.594666 139.383530,49.142204 139.149460,48.689739 
	C136.603561,52.936131 132.108215,53.000893 129.042908,51.351517 
	C126.586845,50.029968 125.660835,45.864883 123.368462,41.718517 
	C129.734070,41.718517 134.192886,41.873814 138.628769,41.623116 
	C139.945694,41.548687 141.915894,40.625355 142.340912,39.583008 
	C143.465057,36.826096 140.148590,31.256588 137.010254,29.991709 
	C137.010254,29.991709 137.082169,29.945410 136.866882,29.249880 
	C135.399017,28.653088 133.935501,28.045279 132.462463,27.461557 
	C127.931602,25.666115 120.647064,27.418554 117.985489,31.003321 
	C117.985489,31.003321 117.932617,30.942625 117.250114,31.121584 
z"/>
<path fill="#242424" opacity="1.000000" stroke="none" 
	d="
M262.951782,55.976540 
	C258.168427,56.033237 253.383240,56.187527 248.602676,56.096977 
	C246.777069,56.062401 244.308319,55.770782 247.936707,53.166084 
	C248.824142,52.774647 249.017914,52.439213 249.211700,52.103783 
	C249.309723,45.468216 249.529297,38.829906 249.379517,32.199940 
	C249.356064,31.161428 247.654160,30.160830 246.240936,28.732105 
	C245.692627,27.836601 245.631729,27.351690 245.570831,26.866779 
	C250.772491,27.219557 255.970764,27.733797 261.177521,27.842995 
	C263.167511,27.884729 265.176880,26.999414 267.561005,26.960361 
	C268.452759,28.599344 268.960938,29.814533 269.664703,31.459290 
	C270.220154,38.822556 270.580017,45.756256 270.944061,52.770638 
	C272.760193,52.770638 274.449371,52.770638 276.722198,52.770638 
	C276.290985,45.367519 275.885681,38.408985 275.818420,30.889114 
	C276.305054,29.916960 276.453613,29.506145 276.602142,29.095329 
	C277.429016,31.179985 278.715698,33.208302 278.979584,35.361946 
	C279.422119,38.973412 278.983551,42.687927 279.350403,46.315128 
	C279.646973,49.247887 280.583466,52.115925 281.457367,55.994614 
	C277.205872,55.994614 271.724304,55.994614 265.778870,55.531212 
	C266.138245,53.476673 267.571442,51.922565 267.670715,50.287476 
	C267.970673,45.346821 267.969482,40.358727 267.605316,35.424591 
	C267.495392,33.935036 265.926697,31.463871 264.837097,31.356213 
	C262.351929,31.110653 260.648407,32.674950 260.860687,35.713463 
	C261.334320,42.493523 259.597565,49.492355 262.951782,55.976540 
M258.028381,46.414764 
	C258.028381,40.814453 258.028381,35.214142 258.028381,29.406998 
	C255.900589,29.406998 254.333740,29.406998 252.500336,29.406998 
	C252.500336,37.376507 252.500336,45.089207 252.500336,52.982025 
	C254.359879,52.982025 255.945755,52.982025 258.028381,52.982025 
	C258.028381,50.959393 258.028381,49.171906 258.028381,46.414764 
z"/>
<path fill="#181818" opacity="1.000000" stroke="none" 
	d="
M137.060059,29.923433 
	C140.148590,31.256588 143.465057,36.826096 142.340912,39.583008 
	C141.915894,40.625355 139.945694,41.548687 138.628769,41.623116 
	C134.192886,41.873814 129.734070,41.718517 123.368462,41.718517 
	C125.660835,45.864883 126.586845,50.029968 129.042908,51.351517 
	C132.108215,53.000893 136.603561,52.936131 139.149460,48.689739 
	C139.383530,49.142204 139.617584,49.594666 139.851654,50.047131 
	C136.352921,52.098972 132.932449,55.617901 129.334488,55.809864 
	C125.353996,56.022247 120.456818,54.102940 117.296074,51.492733 
	C110.743759,46.081696 111.154732,36.929314 117.983704,31.265369 
	C118.203972,32.426094 117.812973,33.530537 117.158020,34.446171 
	C111.762314,41.989372 117.300072,52.438541 125.723320,52.515053 
	C120.842545,45.583462 121.512520,38.093098 123.596359,30.461515 
	C121.312378,30.658527 119.618004,30.804680 117.923637,30.950832 
	C120.647064,27.418554 127.931602,25.666115 132.462463,27.461557 
	C133.935501,28.045279 135.399017,28.653088 136.683701,29.948326 
	C134.911285,30.436947 133.322037,30.227119 131.442505,29.978962 
	C132.097244,32.684811 132.172638,35.273617 133.377060,37.129879 
	C134.113495,38.264870 136.584229,38.274570 138.276062,38.789658 
	C138.506989,37.418045 139.091446,35.988857 138.879791,34.689331 
	C138.612076,33.045506 137.696320,31.507233 137.060059,29.923433 
M125.191628,32.961319 
	C124.960335,34.790001 124.729050,36.618687 124.495483,38.465385 
	C126.557892,38.465385 128.538071,38.465385 130.710617,38.465385 
	C130.342590,36.203835 130.244171,34.397114 129.733002,32.715889 
	C128.760559,29.517494 127.221748,29.211132 125.191628,32.961319 
z"/>
<path fill="#252525" opacity="1.000000" stroke="none" 
	d="
M79.812172,42.966167 
	C85.179993,37.095688 90.365112,31.038445 96.042580,25.484497 
	C97.483070,24.075350 100.487106,23.989464 102.781143,23.960346 
	C103.239105,23.954531 104.085274,26.962749 104.148232,28.604351 
	C104.333199,33.427761 104.214149,38.262829 104.214149,43.345142 
	C105.852310,43.918365 107.444023,44.475334 109.035736,45.032303 
	C109.094101,45.406887 109.152473,45.781471 109.210846,46.156055 
	C107.703049,46.690491 106.195259,47.224930 104.686028,47.760468 
	C103.265182,57.079281 102.900261,57.352146 93.968338,55.453716 
	C93.842140,53.246346 93.710693,50.947296 93.236008,47.950226 
	C93.249977,42.715427 93.607201,38.178642 93.964424,33.641861 
	C93.420410,33.427120 92.876396,33.212379 92.332382,32.997639 
	C88.797440,37.058537 85.262505,41.119434 81.479393,45.465427 
	C81.218048,45.073650 80.515106,44.019909 79.812172,42.966167 
M96.289360,51.112251 
	C97.721664,51.913677 99.153976,52.715103 100.919968,53.703236 
	C100.919968,43.830563 100.919968,35.310329 100.919968,26.486090 
	C96.998337,27.013367 96.257896,29.285427 96.269241,32.198990 
	C96.292549,38.189865 96.275467,44.180901 96.289360,51.112251 
z"/>
<path fill="#E8E8E8" opacity="1.000000" stroke="none" 
	d="
M180.919708,26.451820 
	C180.841873,23.068003 180.764038,19.684183 181.232422,16.127213 
	C184.180847,15.317589 186.583038,14.681117 189.072754,14.503507 
	C189.245789,23.291992 189.331299,31.621614 189.305130,40.365089 
	C189.267914,42.197300 189.342361,43.615654 189.334473,45.471527 
	C189.225296,48.290169 189.198456,50.671295 188.705811,53.159737 
	C185.818192,53.032532 183.396423,52.798012 180.974640,52.563492 
	C181.377853,49.044243 182.147537,45.518620 182.086502,42.007442 
	C182.018478,38.093586 181.195145,34.192856 181.459381,30.005058 
	C183.139389,28.095722 183.949127,26.511978 180.919708,26.451820 
z"/>
<path fill="#242424" opacity="1.000000" stroke="none" 
	d="
M193.717865,37.861435 
	C195.766983,35.330685 197.816116,32.799938 199.930374,30.188766 
	C198.056152,29.370939 196.550842,28.714094 195.045547,28.057249 
	C195.117752,27.795759 195.189972,27.534267 195.262192,27.272778 
	C200.114563,27.272778 204.966934,27.272778 211.104156,27.272778 
	C207.999634,28.530823 205.784500,28.885094 204.329666,30.128735 
	C201.091232,32.897068 198.744781,36.011051 202.201263,40.534348 
	C205.730301,45.152550 208.797668,50.123520 212.083740,54.964500 
	C209.302185,56.928146 201.136627,56.831039 197.420013,54.098888 
	C197.017303,53.224174 196.869446,52.663498 197.147522,52.069870 
	C198.141312,51.992725 198.709183,51.948528 199.591812,52.131622 
	C202.086807,52.730465 204.267044,53.102013 207.355652,53.628361 
	C203.848602,47.856342 200.895905,42.996670 197.878784,38.030991 
	C196.660385,38.764580 195.826721,39.266521 194.947998,39.464504 
	C194.507904,38.727509 194.112885,38.294472 193.717865,37.861435 
z"/>
<path fill="#252525" opacity="1.000000" stroke="none" 
	d="
M240.318878,31.913731 
	C248.634476,40.453453 241.053879,54.163425 231.771362,55.754322 
	C222.860550,57.281509 215.841125,54.409134 212.098389,46.240456 
	C213.254318,45.965874 214.061279,46.131714 214.916443,46.621841 
	C216.723770,48.430443 218.482864,49.914761 220.482590,51.625542 
	C221.078629,51.567646 221.434036,51.283287 221.783752,50.597725 
	C221.316666,48.382221 220.855286,46.567909 220.849167,44.729969 
	C222.120987,45.038391 222.937531,45.370441 223.710526,46.061554 
	C224.025574,47.659317 224.152069,49.041874 224.806244,50.097382 
	C225.498520,51.214340 226.692917,52.020084 227.667984,52.961769 
	C228.516647,52.062031 229.456497,51.228981 230.180908,50.238388 
	C230.640259,49.610264 230.778961,48.747646 231.301193,48.199780 
	C231.719330,49.013222 231.897720,49.617073 232.107208,50.567978 
	C233.046066,51.060844 234.113113,51.591393 234.836472,51.291882 
	C240.879120,48.789871 242.475723,41.761086 239.207855,33.759506 
	C239.804947,32.958313 240.061920,32.436020 240.318878,31.913731 
z"/>
<path fill="#E3E3E3" opacity="1.000000" stroke="none" 
	d="
M158.936203,36.986900 
	C159.544357,40.572803 160.152512,44.158710 160.319122,47.920895 
	C158.944794,46.292534 158.011993,44.487896 157.079193,42.683254 
	C156.579498,42.878681 156.079803,43.074108 155.580109,43.269535 
	C156.732849,46.401058 157.885574,49.532578 159.539749,54.026295 
	C156.532227,52.645103 154.754150,51.828529 152.788696,50.792015 
	C152.065659,50.051788 151.529999,49.531502 150.981720,48.761925 
	C150.857758,48.166615 150.628113,47.940971 150.267273,47.423897 
	C149.834549,43.674393 149.414764,40.336685 149.113007,36.671585 
	C151.232895,33.556503 152.835922,30.212141 157.027298,30.322861 
	C156.608566,33.735672 156.224365,36.866997 155.840164,39.998325 
	C156.351532,40.089638 156.862885,40.180946 157.374252,40.272259 
	C157.894897,39.177139 158.415558,38.082020 158.936203,36.986900 
z"/>
<path fill="#DBDBDB" opacity="1.000000" stroke="none" 
	d="
M263.356873,56.001431 
	C259.597565,49.492355 261.334320,42.493523 260.860687,35.713463 
	C260.648407,32.674950 262.351929,31.110653 264.837097,31.356213 
	C265.926697,31.463871 267.495392,33.935036 267.605316,35.424591 
	C267.969482,40.358727 267.970673,45.346821 267.670715,50.287476 
	C267.571442,51.922565 266.138245,53.476673 265.342041,55.437962 
	C264.833435,55.880852 264.297668,55.953587 263.356873,56.001431 
z"/>
<path fill="#1B1B1B" opacity="1.000000" stroke="none" 
	d="
M158.895035,36.595272 
	C158.415558,38.082020 157.894897,39.177139 157.374252,40.272259 
	C156.862885,40.180946 156.351532,40.089638 155.840164,39.998325 
	C156.224365,36.866997 156.608566,33.735672 157.027298,30.322861 
	C152.835922,30.212141 151.232895,33.556503 148.801422,36.691277 
	C147.956177,37.031113 147.540512,37.023872 147.124832,37.016628 
	C150.354721,24.706118 163.065796,24.100569 171.075485,29.755585 
	C172.558426,30.802586 173.158920,34.562252 172.610733,36.664108 
	C171.876511,39.479317 169.052444,39.690346 166.652557,37.849907 
	C167.877533,36.377819 168.889801,35.433304 169.902069,34.488792 
	C168.539566,34.054520 167.198318,33.508369 165.803665,33.243156 
	C165.274445,33.142521 164.622208,33.688717 164.026047,33.940086 
	C164.200302,33.252213 164.374542,32.564339 165.166031,31.458590 
	C166.057755,30.597534 166.332245,30.154352 166.606750,29.711174 
	C166.144531,29.575756 165.682312,29.440336 165.220093,29.304916 
	C160.464325,29.174095 159.591583,32.626572 158.895035,36.595272 
z"/>
<path fill="#DCDCDC" opacity="1.000000" stroke="none" 
	d="
M79.478989,43.046944 
	C80.515106,44.019909 81.218048,45.073650 81.479393,45.465427 
	C85.262505,41.119434 88.797440,37.058537 92.332382,32.997639 
	C92.876396,33.212379 93.420410,33.427120 93.964424,33.641861 
	C93.607201,38.178642 93.249977,42.715427 92.914505,47.633522 
	C89.000015,48.026684 85.060188,48.135983 81.129707,47.991344 
	C79.942047,47.947643 78.780296,47.199951 77.606674,46.774727 
	C78.119713,45.559055 78.632751,44.343384 79.478989,43.046944 
z"/>
<path fill="#BF9AE9" opacity="1.000000" stroke="none" 
	d="
M15.197354,66.105568 
	C12.257960,66.248718 12.155701,66.249878 12.116654,62.804966 
	C12.041281,56.154884 12.093314,49.503361 12.093211,42.852432 
	C12.093084,34.705048 12.237272,26.553944 12.026675,18.412012 
	C11.936292,14.917681 13.082782,13.566665 16.586580,13.868827 
	C19.393925,14.110928 22.235727,13.953508 25.528429,14.301342 
	C25.991127,15.020294 25.987633,15.411298 25.526390,15.860744 
	C21.525019,15.919187 17.981396,15.919187 14.289200,15.919187 
	C14.289200,18.886497 14.289200,20.860710 14.203605,23.279545 
	C14.158972,25.512190 14.199934,27.300215 14.202108,29.549225 
	C14.188235,36.999279 14.213151,43.988350 14.175783,51.437363 
	C14.474784,56.633392 14.836069,61.369480 15.197354,66.105568 
z"/>
<path fill="#C4E8FE" opacity="1.000000" stroke="none" 
	d="
M57.965778,14.030660 
	C65.030006,13.902252 65.031372,13.902252 65.031944,20.831524 
	C65.032974,33.456680 65.097900,46.082291 65.010017,58.706837 
	C64.947365,67.707924 66.544617,66.992821 56.431099,66.599335 
	C55.983887,65.840607 55.984901,65.423889 56.247349,64.999390 
	C56.682484,64.979416 56.856178,64.967224 57.465179,64.954132 
	C59.476742,64.845047 61.053001,64.736870 62.965824,64.605598 
	C62.965824,51.065350 62.965824,38.032124 62.982803,24.547024 
	C62.999783,21.541189 62.999783,18.987234 62.999783,16.326460 
	C60.836742,16.136862 59.387901,16.009865 57.951820,15.574125 
	C57.964985,14.853807 57.965382,14.442233 57.965778,14.030660 
z"/>
<path fill="#121212" opacity="1.000000" stroke="none" 
	d="
M150.280197,47.835693 
	C150.628113,47.940971 150.857758,48.166615 150.948700,49.114082 
	C151.610886,50.147671 152.293472,50.579811 152.976074,51.011951 
	C154.754150,51.828529 156.532227,52.645103 159.539749,54.026295 
	C157.885574,49.532578 156.732849,46.401058 155.580109,43.269535 
	C156.079803,43.074108 156.579498,42.878681 157.079193,42.683254 
	C158.011993,44.487896 158.944794,46.292534 160.162292,48.334389 
	C160.447006,48.571598 160.493011,48.616638 160.703888,48.874554 
	C161.619751,49.340870 162.324722,49.549267 163.029709,49.757668 
	C166.596451,48.780357 170.163208,47.803047 173.615875,46.856991 
	C174.002823,49.910561 170.485138,53.632530 163.879593,55.861515 
	C158.771927,57.585052 152.185272,54.603008 148.914429,48.451965 
	C149.622589,47.938232 149.951385,47.886963 150.280197,47.835693 
z"/>
<path fill="#0B0B0B" opacity="1.000000" stroke="none" 
	d="
M232.076111,50.220924 
	C231.897720,49.617073 231.719330,49.013222 231.250305,47.786701 
	C231.273117,40.838791 232.559219,34.291584 225.606445,28.935772 
	C224.825821,31.656990 224.045212,34.378208 222.796509,37.131863 
	C221.703735,37.190186 221.079056,37.216068 220.594696,36.862968 
	C221.010025,34.682056 221.285049,32.880135 221.600006,30.816750 
	C220.557602,31.001427 219.802734,31.135166 219.048035,30.928185 
	C219.700424,29.717594 220.352646,28.847721 221.004852,27.977848 
	C224.407028,27.894602 227.809189,27.811357 231.635071,28.166222 
	C232.185486,29.395920 232.312195,30.187506 232.527206,31.425207 
	C233.964600,38.032803 235.223846,44.191639 232.076111,50.220924 
z"/>
<path fill="#0B0B0B" opacity="1.000000" stroke="none" 
	d="
M189.416794,39.951237 
	C189.331299,31.621614 189.245789,23.291992 189.076584,14.173011 
	C188.994766,12.942972 188.996628,12.502292 188.998505,12.061611 
	C191.969574,11.294622 191.794785,13.290922 191.792297,15.200637 
	C191.782791,22.520189 191.797272,29.839773 191.528503,37.771927 
	C190.641724,38.906754 190.029266,39.428993 189.416794,39.951237 
z"/>
<path fill="#E3D5F6" opacity="1.000000" stroke="none" 
	d="
M15.542965,66.069923 
	C14.836069,61.369480 14.474784,56.633392 14.373354,51.558018 
	C15.033310,51.461765 15.433412,51.704796 15.850950,52.317627 
	C15.990268,55.228542 15.682546,57.893650 16.368895,60.271870 
	C16.925825,62.201649 18.536842,64.199165 21.380770,61.868382 
	C23.104910,62.179165 24.553356,62.582436 26.033445,63.221184 
	C26.065086,63.456657 26.090208,63.930965 26.058975,64.271324 
	C26.027626,65.066170 26.027512,65.520645 25.581036,65.984085 
	C22.750164,65.999023 20.365658,66.005005 17.981150,66.010986 
	C17.283625,66.018753 16.586100,66.026512 15.542965,66.069923 
z"/>
<path fill="#CACCF6" opacity="1.000000" stroke="none" 
	d="
M18.264927,66.323051 
	C20.365658,66.005005 22.750164,65.999023 25.995209,65.989777 
	C32.571064,65.659904 38.286381,65.333290 44.414841,64.992874 
	C46.201687,64.952080 47.575397,64.925095 49.389107,64.938637 
	C51.881378,64.988503 53.933643,64.997833 55.985912,65.007164 
	C55.984901,65.423889 55.983887,65.840607 55.974808,66.567627 
	C43.494061,66.796989 31.021383,66.716049 18.264927,66.323051 
z"/>
<path fill="#212121" opacity="1.000000" stroke="none" 
	d="
M189.305130,40.365089 
	C190.029266,39.428993 190.641724,38.906754 191.474533,38.244026 
	C192.143188,38.061684 192.591507,38.019829 193.378845,37.919708 
	C194.112885,38.294472 194.507904,38.727509 194.684494,39.678864 
	C194.359451,41.412685 193.763351,42.881958 194.237427,43.796413 
	C195.697601,46.612957 197.566788,49.217449 199.277054,51.904327 
	C198.709183,51.948528 198.141312,51.992725 196.894104,51.900715 
	C195.521393,50.569084 194.828033,49.373661 193.940125,47.893700 
	C192.302643,46.750774 190.859726,45.892391 189.416809,45.034012 
	C189.342361,43.615654 189.267914,42.197300 189.305130,40.365089 
z"/>
<path fill="#070707" opacity="1.000000" stroke="none" 
	d="
M180.633621,52.717667 
	C183.396423,52.798012 185.818192,53.032532 189.033829,53.149765 
	C190.483902,53.023632 191.140137,53.014793 191.971588,53.355423 
	C193.382111,54.446598 194.617401,55.188305 195.852707,55.930008 
	C189.890961,55.960415 183.929230,55.990829 177.503983,55.538025 
	C176.919556,54.576706 176.798645,54.098598 176.677734,53.620491 
	C177.882690,53.370941 179.087646,53.121391 180.633621,52.717667 
z"/>
<path fill="#373737" opacity="1.000000" stroke="none" 
	d="
M220.790070,27.775322 
	C220.352646,28.847721 219.700424,29.717594 218.901688,31.208214 
	C217.459229,33.451920 216.163300,35.074875 214.553238,36.867882 
	C213.246292,37.005318 212.253494,36.972706 211.260681,36.940094 
	C212.966248,32.426235 215.655441,28.890455 220.790070,27.775322 
z"/>
<path fill="#BCC7F6" opacity="1.000000" stroke="none" 
	d="
M57.501347,14.019030 
	C57.965382,14.442233 57.964985,14.853807 57.490723,15.600087 
	C51.324505,15.891214 45.632149,15.847634 39.952080,15.513182 
	C39.966122,14.834754 39.967873,14.447200 39.969627,14.059647 
	C45.658722,14.042231 51.347816,14.024816 57.501347,14.019030 
z"/>
<path fill="#373737" opacity="1.000000" stroke="none" 
	d="
M150.267273,47.423897 
	C149.951385,47.886963 149.622589,47.938232 148.805176,48.091698 
	C147.774597,44.684158 147.232635,41.174427 146.907745,37.340660 
	C147.540512,37.023872 147.956177,37.031113 148.683426,37.018661 
	C149.414764,40.336685 149.834549,43.674393 150.267273,47.423897 
z"/>
<path fill="#E3E3E3" opacity="1.000000" stroke="none" 
	d="
M210.952026,37.119419 
	C212.253494,36.972706 213.246292,37.005318 214.549286,37.251472 
	C211.735291,40.412296 213.522079,43.354706 214.868225,46.297554 
	C214.061279,46.131714 213.254318,45.965874 212.035553,45.873627 
	C211.296951,43.064396 210.970169,40.181568 210.952026,37.119419 
z"/>
<path fill="#B8A6ED" opacity="1.000000" stroke="none" 
	d="
M39.508339,14.035253 
	C39.967873,14.447200 39.966122,14.834754 39.494625,15.557955 
	C34.677971,15.863168 30.331055,15.832734 25.984140,15.802300 
	C25.987633,15.411298 25.991127,15.020294 25.992546,14.336462 
	C30.342665,14.032708 34.694859,14.021784 39.508339,14.035253 
z"/>
<path fill="#070707" opacity="1.000000" stroke="none" 
	d="
M188.543274,11.974043 
	C188.996628,12.502292 188.994766,12.942972 188.989059,13.714149 
	C186.583038,14.681117 184.180847,15.317589 181.361038,15.721058 
	C179.377304,14.615333 177.811188,13.742612 176.245056,12.869891 
	C176.285980,12.542087 176.326889,12.214281 176.367798,11.886476 
	C180.274551,11.886476 184.181290,11.886476 188.543274,11.974043 
z"/>
<path fill="#D0D0D0" opacity="1.000000" stroke="none" 
	d="
M196.116241,55.919891 
	C194.617401,55.188305 193.382111,54.446598 192.025253,52.933887 
	C192.608978,50.813175 190.193848,47.716381 194.134674,48.178242 
	C194.828033,49.373661 195.521393,50.569084 196.468170,51.933662 
	C196.869446,52.663498 197.017303,53.224174 197.050964,54.206406 
	C196.751083,55.055237 196.565430,55.482510 196.116241,55.919891 
z"/>
<path fill="#454545" opacity="1.000000" stroke="none" 
	d="
M163.890533,34.154243 
	C164.622208,33.688717 165.274445,33.142521 165.803665,33.243156 
	C167.198318,33.508369 168.539566,34.054520 169.902069,34.488792 
	C168.889801,35.433304 167.877533,36.377819 166.427643,37.528992 
	C165.990021,37.735657 166.043335,37.691967 166.326797,37.417931 
	C166.348587,36.616608 166.086914,36.089314 165.825256,35.562027 
	C165.547821,36.048538 165.270401,36.535046 164.992981,37.021553 
	C164.580307,36.137169 164.167664,35.252785 163.890533,34.154243 
z"/>
<path fill="#242424" opacity="1.000000" stroke="none" 
	d="
M270.036530,26.459843 
	C270.521240,26.479336 271.005981,26.498827 271.830688,27.027182 
	C272.775635,27.692631 273.380554,27.849218 273.985504,28.005810 
	C274.802917,28.209461 275.620331,28.413111 276.519958,28.856045 
	C276.453613,29.506145 276.305054,29.916960 275.527954,30.687027 
	C273.604675,30.544804 272.309937,30.043329 270.986755,29.270027 
	C270.651093,28.152081 270.343811,27.305962 270.036530,26.459843 
z"/>
<path fill="#2B2B2B" opacity="1.000000" stroke="none" 
	d="
M232.438904,30.979092 
	C232.312195,30.187506 232.185486,29.395920 232.031723,28.290636 
	C233.205704,28.008053 234.406738,28.039169 235.818573,28.793358 
	C235.969482,30.133442 235.909561,30.750454 235.423096,31.278902 
	C234.143997,31.119923 233.291443,31.049507 232.438904,30.979092 
z"/>
<path fill="#323232" opacity="1.000000" stroke="none" 
	d="
M269.773193,26.344723 
	C270.343811,27.305962 270.651093,28.152081 270.536438,29.254042 
	C269.899384,30.016499 269.684235,30.523113 269.469086,31.029726 
	C268.960938,29.814533 268.452759,28.599344 267.934998,27.010908 
	C268.453583,26.501640 268.981720,26.365622 269.773193,26.344723 
z"/>
<path fill="#2B2B2B" opacity="1.000000" stroke="none" 
	d="
M240.258926,31.664446 
	C240.061920,32.436020 239.804947,32.958313 238.956512,33.641541 
	C237.899139,33.237862 237.433228,32.673252 237.008057,31.776169 
	C237.433929,30.934027 237.819046,30.424356 238.204163,29.914690 
	C238.869095,30.414848 239.534027,30.915007 240.258926,31.664446 
z"/>
<path fill="#E3E3E3" opacity="1.000000" stroke="none" 
	d="
M162.938721,49.421646 
	C162.324722,49.549267 161.619751,49.340870 160.735657,48.879772 
	C161.320282,48.779922 162.084015,48.932774 162.938721,49.421646 
z"/>
<path fill="#252525" opacity="1.000000" stroke="none" 
	d="
M238.039139,29.636944 
	C237.819046,30.424356 237.433929,30.934027 236.775833,31.729858 
	C236.180069,31.905642 235.962326,31.689455 235.849640,31.367466 
	C235.909561,30.750454 235.969482,30.133442 236.082092,29.054482 
	C236.714584,28.848089 237.294342,29.103645 238.039139,29.636944 
z"/>
<path fill="#454545" opacity="1.000000" stroke="none" 
	d="
M165.201721,29.745577 
	C165.682312,29.440336 166.144531,29.575756 166.606750,29.711174 
	C166.332245,30.154352 166.057755,30.597534 165.524292,31.052608 
	C165.237976,30.771749 165.210663,30.478994 165.201721,29.745577 
z"/>
<path fill="#DBDBDB" opacity="1.000000" stroke="none" 
	d="
M245.301071,26.933882 
	C245.631729,27.351690 245.692627,27.836601 245.830933,28.681053 
	C245.616013,28.360723 245.323669,27.680853 245.301071,26.933882 
z"/>
<path fill="#323232" opacity="1.000000" stroke="none" 
	d="
M273.771179,27.881012 
	C273.380554,27.849218 272.775635,27.692631 272.069061,27.312229 
	C272.497253,27.311016 273.027039,27.533619 273.771179,27.881012 
z"/>
<path fill="#1B1B1B" opacity="1.000000" stroke="none" 
	d="
M165.102966,37.253685 
	C165.270401,36.535046 165.547821,36.048538 165.825256,35.562027 
	C166.086914,36.089314 166.348587,36.616608 166.358887,37.430492 
	C166.107513,37.717087 165.615921,37.775097 165.615921,37.775097 
	C165.615921,37.775097 165.212936,37.485821 165.102966,37.253685 
z"/>
<path fill="#404040" opacity="1.000000" stroke="none" 
	d="
M176.321411,53.740936 
	C176.798645,54.098598 176.919556,54.576706 177.055084,55.424362 
	C176.701492,55.149738 176.333298,54.505562 176.321411,53.740936 
z"/>
<path fill="#070707" opacity="1.000000" stroke="none" 
	d="
M180.818848,26.964458 
	C183.949127,26.511978 183.139389,28.095722 181.568848,29.635363 
	C180.852325,28.857050 180.785156,28.167072 180.818848,26.964458 
z"/>
<path fill="#DBDBDB" opacity="1.000000" stroke="none" 
	d="
M248.952576,52.156044 
	C249.017914,52.439213 248.824142,52.774647 248.314041,53.046318 
	C248.229630,52.724480 248.461548,52.466396 248.952576,52.156044 
z"/>
<path fill="#E9E9E9" opacity="1.000000" stroke="none" 
	d="
M258.028381,46.899590 
	C258.028381,49.171906 258.028381,50.959393 258.028381,52.982025 
	C255.945755,52.982025 254.359879,52.982025 252.500336,52.982025 
	C252.500336,45.089207 252.500336,37.376507 252.500336,29.406998 
	C254.333740,29.406998 255.900589,29.406998 258.028381,29.406998 
	C258.028381,35.214142 258.028381,40.814453 258.028381,46.899590 
z"/>
<path fill="#F3F3F3" opacity="1.000000" stroke="none" 
	d="
M269.664703,31.459293 
	C269.684235,30.523113 269.899384,30.016499 270.564880,29.525867 
	C272.309937,30.043329 273.604675,30.544804 275.189880,31.248367 
	C275.885681,38.408985 276.290985,45.367519 276.722198,52.770638 
	C274.449371,52.770638 272.760193,52.770638 270.944061,52.770638 
	C270.580017,45.756256 270.220154,38.822556 269.664703,31.459293 
z"/>
<path fill="#E1E1E1" opacity="1.000000" stroke="none" 
	d="
M117.954559,30.977077 
	C119.618004,30.804680 121.312378,30.658527 123.596359,30.461515 
	C121.512520,38.093098 120.842545,45.583462 125.723320,52.515053 
	C117.300072,52.438541 111.762314,41.989372 117.158020,34.446171 
	C117.812973,33.530537 118.203972,32.426094 118.324959,31.175892 
	C117.932617,30.942625 117.985489,31.003321 117.954559,30.977077 
z"/>
<path fill="#DCDCDC" opacity="1.000000" stroke="none" 
	d="
M137.035156,29.957571 
	C137.696320,31.507233 138.612076,33.045506 138.879791,34.689331 
	C139.091446,35.988857 138.506989,37.418045 138.276062,38.789658 
	C136.584229,38.274570 134.113495,38.264870 133.377060,37.129879 
	C132.172638,35.273617 132.097244,32.684811 131.442505,29.978962 
	C133.322037,30.227119 134.911285,30.436947 136.791351,30.296093 
	C137.082169,29.945410 137.010254,29.991709 137.035156,29.957571 
z"/>
<path fill="#D4D4D4" opacity="1.000000" stroke="none" 
	d="
M125.292023,32.575882 
	C127.221748,29.211132 128.760559,29.517494 129.733002,32.715889 
	C130.244171,34.397114 130.342590,36.203835 130.710617,38.465385 
	C128.538071,38.465385 126.557892,38.465385 124.495483,38.465385 
	C124.729050,36.618687 124.960335,34.790001 125.292023,32.575882 
z"/>
<path fill="#E5E5E5" opacity="1.000000" stroke="none" 
	d="
M96.282181,50.642059 
	C96.275467,44.180901 96.292549,38.189865 96.269241,32.198990 
	C96.257896,29.285427 96.998337,27.013367 100.919968,26.486090 
	C100.919968,35.310329 100.919968,43.830563 100.919968,53.703236 
	C99.153976,52.715103 97.721664,51.913677 96.282181,50.642059 
z"/>
<path fill="#0B0B0B" opacity="1.000000" stroke="none" 
	d="
M193.940125,47.893700 
	C190.193848,47.716381 192.608978,50.813175 191.850037,52.584419 
	C191.140137,53.014793 190.483902,53.023632 189.499664,53.042442 
	C189.198456,50.671295 189.225296,48.290169 189.334457,45.471527 
	C190.859726,45.892391 192.302643,46.750774 193.940125,47.893700 
z"/>
<path fill="#E7E7E7" opacity="1.000000" stroke="none" 
	d="
M199.591812,52.131622 
	C197.566788,49.217449 195.697601,46.612957 194.237427,43.796413 
	C193.763351,42.881958 194.359451,41.412685 194.729553,39.982822 
	C195.826721,39.266521 196.660385,38.764580 197.878784,38.030991 
	C200.895905,42.996670 203.848602,47.856342 207.355652,53.628361 
	C204.267044,53.102013 202.086807,52.730465 199.591812,52.131622 
z"/>
<path fill="#E8E8E8" opacity="1.000000" stroke="none" 
	d="
M223.264603,37.099426 
	C224.045212,34.378208 224.825821,31.656990 225.606445,28.935772 
	C232.559219,34.291584 231.273117,40.838791 231.010559,47.577110 
	C230.778961,48.747646 230.640259,49.610264 230.180908,50.238388 
	C229.456497,51.228981 228.516647,52.062031 227.667984,52.961769 
	C226.692917,52.020084 225.498520,51.214340 224.806244,50.097382 
	C224.152069,49.041874 224.025574,47.659317 223.782745,45.589813 
	C223.687210,42.205814 223.475906,39.652618 223.264603,37.099426 
z"/>
<path fill="#E5E5E5" opacity="1.000000" stroke="none" 
	d="
M235.423096,31.278902 
	C235.962326,31.689455 236.180069,31.905642 236.735077,32.062332 
	C237.433228,32.673252 237.899139,33.237862 238.616394,33.920441 
	C242.475723,41.761086 240.879120,48.789871 234.836472,51.291882 
	C234.113113,51.591393 233.046066,51.060844 232.107208,50.567982 
	C235.223846,44.191639 233.964600,38.032803 232.527206,31.425207 
	C233.291443,31.049507 234.143997,31.119923 235.423096,31.278902 
z"/>
<path fill="#E8E8E8" opacity="1.000000" stroke="none" 
	d="
M214.916443,46.621841 
	C213.522079,43.354706 211.735291,40.412296 214.863419,37.081421 
	C216.163300,35.074875 217.459229,33.451920 218.901505,31.548933 
	C219.802734,31.135166 220.557602,31.001427 221.600006,30.816750 
	C221.285049,32.880135 221.010025,34.682056 220.430954,37.126141 
	C220.215912,40.096733 220.304901,42.425167 220.393890,44.753601 
	C220.855286,46.567909 221.316666,48.382221 221.389603,50.669640 
	C220.748108,51.228195 220.495041,51.313637 220.241959,51.399078 
	C218.482864,49.914761 216.723770,48.430443 214.916443,46.621841 
z"/>
<path fill="#E3E3E3" opacity="1.000000" stroke="none" 
	d="
M220.849152,44.729973 
	C220.304901,42.425167 220.215912,40.096733 220.290649,37.505127 
	C221.079056,37.216068 221.703735,37.190186 222.796509,37.131863 
	C223.475906,39.652618 223.687210,42.205814 223.826294,45.230751 
	C222.937531,45.370441 222.120987,45.038391 220.849152,44.729973 
z"/>
<path fill="#E3E3E3" opacity="1.000000" stroke="none" 
	d="
M220.482590,51.625542 
	C220.495041,51.313637 220.748108,51.228195 221.395294,51.070839 
	C221.434036,51.283287 221.078629,51.567646 220.482590,51.625542 
z"/>
<path fill="#373737" opacity="1.000000" stroke="none" 
	d="
M152.788696,50.792015 
	C152.293472,50.579811 151.610886,50.147671 150.961304,49.363373 
	C151.529999,49.531502 152.065659,50.051788 152.788696,50.792015 
z"/>
<path fill="#FCFCFE" opacity="1.000000" stroke="none" 
	d="
M25.526390,15.860744 
	C30.331055,15.832734 34.677971,15.863168 39.482338,15.848828 
	C45.632149,15.847634 51.324505,15.891214 57.477959,15.908831 
	C59.387901,16.009865 60.836742,16.136862 62.999783,16.326460 
	C62.999783,18.987234 62.999783,21.541189 62.759331,24.546970 
	C62.518875,24.998796 62.071205,24.997826 62.036461,24.636021 
	C60.371555,21.867367 58.741398,19.460518 56.769100,17.064285 
	C55.746059,17.632105 55.065155,18.189310 54.384254,18.746515 
	C54.936131,19.159599 55.488007,19.572683 56.402271,20.034695 
	C61.557724,22.908325 59.993015,27.009745 58.845398,31.208817 
	C58.531818,31.660751 58.280487,31.837412 57.592491,31.950903 
	C53.546040,33.276421 49.922047,34.711113 46.207058,35.848633 
	C44.877045,36.255882 43.327229,35.945274 41.976410,35.607697 
	C43.418648,31.176575 44.762215,27.100069 46.413895,22.966312 
	C47.475185,21.939438 48.228359,20.969812 49.321381,19.995216 
	C50.223507,19.479467 50.785778,18.968685 51.348053,18.457905 
	C49.902576,18.624855 48.457104,18.791805 46.543716,18.984028 
	C38.065563,18.359665 30.055319,17.710032 21.724266,17.167072 
	C19.032038,19.127472 16.660618,20.981197 14.289200,22.834923 
	C14.289200,20.860710 14.289200,18.886497 14.289200,15.919187 
	C17.981396,15.919187 21.525019,15.919187 25.526390,15.860744 
z"/>
<path fill="#F4EDFB" opacity="1.000000" stroke="none" 
	d="
M15.833513,51.947830 
	C15.433412,51.704796 15.033310,51.461765 14.435637,51.098076 
	C14.213151,43.988350 14.188235,36.999279 14.551373,29.521179 
	C15.647823,29.025414 16.356220,29.018679 17.275707,29.118349 
	C17.748627,29.426189 17.920584,29.686930 17.935337,30.471548 
	C17.189838,37.940025 16.511675,44.943928 15.833513,51.947830 
z"/>
<path fill="#E3D5F6" opacity="1.000000" stroke="none" 
	d="
M17.064617,29.011944 
	C16.356220,29.018679 15.647823,29.025414 14.590161,29.060194 
	C14.199934,27.300215 14.158972,25.512190 14.203605,23.279545 
	C16.660618,20.981197 19.032038,19.127472 21.703724,17.508503 
	C22.000305,18.200449 21.996620,18.657637 21.824291,19.406429 
	C18.983881,22.240038 15.754128,24.506998 17.064617,29.011944 
z"/>
<path fill="#FAFAFE" opacity="1.000000" stroke="none" 
	d="
M62.071205,24.997826 
	C62.071205,24.997826 62.518875,24.998796 62.742348,24.998848 
	C62.965824,38.032124 62.965824,51.065350 62.965824,64.605598 
	C61.053001,64.736870 59.476742,64.845047 57.452888,64.626266 
	C56.997921,63.859501 56.990555,63.419693 57.051155,62.752560 
	C57.119125,62.525234 57.228340,62.063217 57.568726,62.013756 
	C62.818420,58.131470 63.436920,54.353821 60.029564,48.501842 
	C60.057915,42.372810 60.093708,36.709583 60.437080,30.851383 
	C61.186840,28.770216 61.629025,26.884022 62.071205,24.997826 
z"/>
<path fill="#E6E9FB" opacity="1.000000" stroke="none" 
	d="
M56.983185,62.979885 
	C56.990555,63.419693 56.997921,63.859501 57.017578,64.627167 
	C56.856178,64.967224 56.682484,64.979416 56.247349,64.999390 
	C53.933643,64.997833 51.881378,64.988503 49.406570,64.624283 
	C48.989105,63.847347 48.994179,63.425301 49.373222,63.045597 
	C52.159191,63.051922 54.571190,63.015903 56.983185,62.979885 
z"/>
<path fill="#FBFAFE" opacity="1.000000" stroke="none" 
	d="
M26.001804,62.985710 
	C24.553356,62.582436 23.104910,62.179165 21.224001,61.556160 
	C17.518154,57.727119 15.487128,53.998501 19.446318,49.531540 
	C19.814104,49.116589 19.838091,48.306744 19.846546,47.677898 
	C19.908318,43.084259 19.925285,38.490013 20.309002,33.969898 
	C22.438215,33.399094 24.263660,38.473934 26.327000,34.041595 
	C27.104578,34.721703 27.562716,35.358406 28.073223,36.353687 
	C30.087528,37.474842 32.049465,38.237423 34.028702,39.332409 
	C34.371117,40.737286 34.696239,41.809757 35.275627,43.107738 
	C33.578762,48.885204 31.627626,54.437157 29.395294,60.046162 
	C28.424578,60.733013 27.735058,61.362812 26.888874,61.837238 
	C26.490690,62.114433 26.249166,62.547001 26.005119,62.985863 
	C26.002594,62.992149 26.001804,62.985710 26.001804,62.985710 
z"/>
<path fill="#F8F7FD" opacity="1.000000" stroke="none" 
	d="
M27.045536,61.992615 
	C27.735058,61.362812 28.424578,60.733013 29.704792,60.336044 
	C32.509823,60.732433 34.724163,60.895992 37.389069,61.088074 
	C41.559509,61.745483 45.279377,62.374371 48.999249,63.003254 
	C48.994179,63.425301 48.989105,63.847347 48.966568,64.583748 
	C47.575397,64.925095 46.201687,64.952080 44.120552,64.696426 
	C37.638817,64.252846 31.864511,64.091904 26.090208,63.930965 
	C26.090208,63.930965 26.065086,63.456657 26.033445,63.221184 
	C26.001804,62.985710 26.002594,62.992149 26.231792,62.886158 
	C26.736864,62.577805 26.931711,62.315289 27.045536,61.992615 
z"/>
<path fill="#B28FE7" opacity="1.000000" stroke="none" 
	d="
M19.956398,33.895962 
	C19.925285,38.490013 19.908318,43.084259 19.846546,47.677898 
	C19.838091,48.306744 19.814104,49.116589 19.446318,49.531540 
	C15.487128,53.998501 17.518154,57.727119 20.948309,61.648651 
	C18.536842,64.199165 16.925825,62.201649 16.368895,60.271870 
	C15.682546,57.893650 15.990268,55.228542 15.850950,52.317627 
	C16.511675,44.943928 17.189838,37.940025 18.194696,30.621357 
	C19.327646,30.895390 20.133902,31.484188 20.847809,32.315964 
	C20.489105,33.004616 20.222752,33.450287 19.956398,33.895962 
z"/>
<path fill="#E6E9FB" opacity="1.000000" stroke="none" 
	d="
M26.058975,64.271324 
	C31.864511,64.091904 37.638817,64.252846 43.707409,64.710236 
	C38.286381,65.333290 32.571064,65.659904 26.441572,65.980820 
	C26.027512,65.520645 26.027626,65.066170 26.058975,64.271324 
z"/>
<path fill="#C4C0F3" opacity="1.000000" stroke="none" 
	d="
M21.992935,19.114822 
	C21.996620,18.657637 22.000305,18.200449 22.024532,17.401831 
	C30.055319,17.710032 38.065563,18.359665 46.833103,19.034958 
	C48.054111,19.373806 48.517818,19.686996 48.981529,20.000185 
	C48.228359,20.969812 47.475185,21.939438 46.153427,22.960833 
	C45.411674,23.014568 45.238510,23.016537 44.970291,22.620430 
	C40.831318,22.138186 36.787403,22.054018 32.409988,21.979671 
	C31.402853,21.991674 30.729216,21.993858 29.867451,21.687748 
	C27.117195,20.624577 24.555065,19.869699 21.992935,19.114822 
z"/>
<path fill="#C9C7F4" opacity="1.000000" stroke="none" 
	d="
M41.877735,35.962303 
	C43.327229,35.945274 44.877045,36.255882 46.207058,35.848633 
	C49.922047,34.711113 53.546040,33.276421 57.594063,32.313202 
	C57.958355,33.148460 57.934536,33.629547 57.541389,34.079178 
	C53.186592,35.662273 49.100433,37.080856 45.291004,39.038048 
	C44.409641,39.490868 44.474007,41.784412 43.735031,43.190689 
	C42.628059,43.149124 41.889248,43.147808 41.098618,42.786751 
	C40.679867,41.309235 40.312931,40.191452 39.962063,38.691418 
	C39.977989,37.544701 39.977848,36.780243 40.005852,36.001854 
	C40.034000,35.987930 40.089417,36.017494 40.388027,36.008400 
	C41.083672,35.986969 41.480701,35.974636 41.877735,35.962303 
z"/>
<path fill="#BDACEE" opacity="1.000000" stroke="none" 
	d="
M57.910713,34.110634 
	C57.934536,33.629547 57.958355,33.148460 57.980606,32.305073 
	C58.280487,31.837412 58.531818,31.660751 59.138699,31.214573 
	C59.739407,31.026352 59.934452,31.036352 60.129498,31.046354 
	C60.093708,36.709583 60.057915,42.372810 59.701561,48.575317 
	C59.164814,49.172749 58.948635,49.230907 58.451286,49.199417 
	C57.708195,48.764145 57.246262,48.418522 56.872349,47.653843 
	C57.277149,42.860069 57.593933,38.485352 57.910713,34.110634 
z"/>
<path fill="#C3E3FC" opacity="1.000000" stroke="none" 
	d="
M60.437080,30.851383 
	C59.934452,31.036352 59.739407,31.026352 59.251064,31.010597 
	C59.993015,27.009745 61.557724,22.908325 56.407112,19.716007 
	C56.403458,18.583485 56.757347,17.818579 57.111237,17.053669 
	C58.741398,19.460518 60.371555,21.867367 62.036461,24.636021 
	C61.629025,26.884022 61.186840,28.770216 60.437080,30.851383 
z"/>
<path fill="#C0A8ED" opacity="1.000000" stroke="none" 
	d="
M41.976410,35.607693 
	C41.480701,35.974636 41.083672,35.986969 40.355919,35.626011 
	C41.705254,31.174650 43.385303,27.096579 45.065353,23.018505 
	C45.238510,23.016537 45.411674,23.014568 45.845306,23.018082 
	C44.762215,27.100069 43.418648,31.176575 41.976410,35.607693 
z"/>
<path fill="#FAFAFE" opacity="1.000000" stroke="none" 
	d="
M49.321381,19.995216 
	C48.517818,19.686996 48.054111,19.373806 47.301014,19.009687 
	C48.457104,18.791805 49.902576,18.624855 51.348053,18.457905 
	C50.785778,18.968685 50.223507,19.479467 49.321381,19.995216 
z"/>
<path fill="#FAFAFE" opacity="1.000000" stroke="none" 
	d="
M56.769096,17.064285 
	C56.757347,17.818579 56.403458,18.583485 56.044727,19.667080 
	C55.488007,19.572683 54.936131,19.159599 54.384254,18.746515 
	C55.065155,18.189310 55.746059,17.632105 56.769096,17.064285 
z"/>
<path fill="#FCFCFE" opacity="1.000000" stroke="none" 
	d="
M21.824291,19.406427 
	C24.555065,19.869699 27.117195,20.624577 29.899532,22.049686 
	C32.088825,28.154293 34.057911,33.588669 35.769241,38.948296 
	C35.050282,38.609451 34.589077,38.345356 33.796585,38.033516 
	C31.650486,37.322220 29.835670,36.658665 28.020855,35.995110 
	C27.562716,35.358406 27.104578,34.721703 26.014889,33.903259 
	C23.902279,33.172012 22.421217,32.622498 20.940157,32.072987 
	C20.133902,31.484188 19.327646,30.895390 18.262032,30.156784 
	C17.920584,29.686930 17.748627,29.426189 17.275707,29.118347 
	C15.754128,24.506998 18.983881,22.240038 21.824291,19.406427 
z"/>
<path fill="#B7BFF4" opacity="1.000000" stroke="none" 
	d="
M49.373222,63.045597 
	C45.279377,62.374371 41.559509,61.745483 37.415100,60.784527 
	C37.018764,60.048702 37.046970,59.644943 37.518082,59.192986 
	C40.399471,59.104343 42.837955,59.063908 45.602196,59.010529 
	C46.363644,58.972816 46.799332,58.948055 47.511612,59.132233 
	C50.488636,60.186108 53.189075,61.031048 56.223846,61.925449 
	C56.781567,62.004349 57.004955,62.033783 57.228340,62.063217 
	C57.228340,62.063217 57.119125,62.525234 57.051155,62.752560 
	C54.571190,63.015903 52.159191,63.051922 49.373222,63.045597 
z"/>
<path fill="#C3E3FC" opacity="1.000000" stroke="none" 
	d="
M57.568726,62.013756 
	C57.004955,62.033783 56.781567,62.004349 56.417839,61.641212 
	C60.836552,58.065468 60.615223,53.846954 58.732452,49.289066 
	C58.948635,49.230907 59.164814,49.172749 59.709000,49.041115 
	C63.436920,54.353821 62.818420,58.131470 57.568726,62.013756 
z"/>
<path fill="#CAD7F9" opacity="1.000000" stroke="none" 
	d="
M37.075176,59.241188 
	C37.046970,59.644943 37.018764,60.048702 36.964531,60.756004 
	C34.724163,60.895992 32.509823,60.732433 29.985987,60.278996 
	C31.627626,54.437157 33.578762,48.885204 35.401722,42.899029 
	C35.493919,42.210461 35.763359,42.028877 36.399632,41.890511 
	C37.479111,40.906025 38.240822,39.951084 39.001266,38.998070 
	C39.000000,39.000000 39.003994,39.002411 39.005924,39.419144 
	C39.000584,41.225327 38.993317,42.614777 38.705383,44.207066 
	C36.488323,48.924225 34.551926,53.438549 32.439182,58.363987 
	C34.545513,58.762535 35.810345,59.001862 37.075176,59.241188 
z"/>
<path fill="#C4C0F3" opacity="1.000000" stroke="none" 
	d="
M20.847809,32.315964 
	C22.421217,32.622498 23.902279,33.172012 25.695450,33.859856 
	C24.263660,38.473934 22.438215,33.399094 20.309002,33.969898 
	C20.222752,33.450287 20.489105,33.004616 20.847809,32.315964 
z"/>
<path fill="#FAFAFE" opacity="1.000000" stroke="none" 
	d="
M28.073223,36.353687 
	C29.835670,36.658665 31.650486,37.322220 33.761940,38.262108 
	C34.058578,38.538441 34.011402,39.000000 34.011402,39.000000 
	C32.049465,38.237423 30.087528,37.474842 28.073223,36.353687 
z"/>
<path fill="#BFD7F9" opacity="1.000000" stroke="none" 
	d="
M34.028702,39.332409 
	C34.011402,39.000000 34.058578,38.538441 34.093224,38.309853 
	C34.589077,38.345356 35.050282,38.609451 35.789440,38.962425 
	C36.067394,39.051304 36.107616,39.080891 36.081997,39.300350 
	C36.056377,39.519810 36.023361,39.960480 35.844410,40.044960 
	C35.587200,40.233002 35.425903,40.408417 35.443642,40.428913 
	C35.605030,40.615414 35.797634,40.774902 36.002014,41.187172 
	C36.022923,41.432053 36.081867,41.920052 36.081867,41.920052 
	C35.763359,42.028877 35.493919,42.210461 35.147453,42.673515 
	C34.696239,41.809757 34.371117,40.737286 34.028702,39.332409 
z"/>
<path fill="#E6E9FB" opacity="1.000000" stroke="none" 
	d="
M26.888874,61.837238 
	C26.931711,62.315289 26.736864,62.577805 26.234318,62.879868 
	C26.249166,62.547001 26.490690,62.114433 26.888874,61.837238 
z"/>
<path fill="#FAFAFE" opacity="1.000000" stroke="none" 
	d="
M44.970291,22.620430 
	C43.385303,27.096579 41.705254,31.174650 40.057312,35.635109 
	C40.089417,36.017494 40.034000,35.987930 39.645649,35.973694 
	C37.086029,31.296251 34.914761,26.633051 32.743488,21.969851 
	C36.787403,22.054018 40.831318,22.138186 44.970291,22.620430 
z"/>
<path fill="#BFD7F9" opacity="1.000000" stroke="none" 
	d="
M32.409988,21.979671 
	C34.914761,26.633051 37.086029,31.296251 39.617500,35.987617 
	C39.977848,36.780243 39.977989,37.544701 39.727211,38.667984 
	C39.476299,39.026810 39.003994,39.002411 39.003994,39.002411 
	C39.003994,39.002411 39.000000,39.000000 38.841797,38.763229 
	C37.824936,38.711269 36.966278,38.896080 36.107616,39.080891 
	C36.107616,39.080891 36.067394,39.051304 36.047195,39.037174 
	C34.057911,33.588669 32.088825,28.154293 30.087658,22.357981 
	C30.729216,21.993858 31.402853,21.991674 32.409988,21.979671 
z"/>
<path fill="#FCFCFE" opacity="1.000000" stroke="none" 
	d="
M58.451286,49.199417 
	C60.615223,53.846954 60.836552,58.065468 56.083504,61.591747 
	C53.189075,61.031048 50.488636,60.186108 47.446159,58.759392 
	C45.119556,53.167240 43.134998,48.156864 41.150436,43.146488 
	C41.889248,43.147808 42.628059,43.149124 43.892136,43.468975 
	C48.539707,45.215969 52.662018,46.644432 56.784328,48.072899 
	C57.246262,48.418522 57.708195,48.764145 58.451286,49.199417 
z"/>
<path fill="#F8F7FD" opacity="1.000000" stroke="none" 
	d="
M56.872349,47.653839 
	C52.662018,46.644432 48.539707,45.215969 44.260292,43.509216 
	C44.474007,41.784412 44.409641,39.490868 45.291004,39.038048 
	C49.100433,37.080856 53.186592,35.662273 57.541389,34.079178 
	C57.593933,38.485352 57.277149,42.860069 56.872349,47.653839 
z"/>
<path fill="#C0A8ED" opacity="1.000000" stroke="none" 
	d="
M41.098618,42.786751 
	C43.134998,48.156864 45.119556,53.167240 47.169571,58.550453 
	C46.799332,58.948055 46.363644,58.972816 45.485184,58.650749 
	C43.023628,53.537354 41.004837,48.770790 38.986046,44.004227 
	C38.993317,42.614777 39.000584,41.225327 39.005924,39.419144 
	C39.003994,39.002411 39.476299,39.026810 39.711151,39.050240 
	C40.312931,40.191452 40.679867,41.309235 41.098618,42.786751 
z"/>
<path fill="#FCFCFE" opacity="1.000000" stroke="none" 
	d="
M38.705383,44.207066 
	C41.004837,48.770790 43.023628,53.537354 45.159428,58.663696 
	C42.837955,59.063908 40.399471,59.104343 37.518082,59.192982 
	C35.810345,59.001862 34.545513,58.762535 32.439182,58.363987 
	C34.551926,53.438549 36.488323,48.924225 38.705383,44.207066 
z"/>
<path fill="#B7BFF4" opacity="1.000000" stroke="none" 
	d="
M36.081997,39.300350 
	C36.966278,38.896080 37.824936,38.711269 38.843063,38.761303 
	C38.240822,39.951084 37.479111,40.906025 36.399632,41.890511 
	C36.081867,41.920052 36.022923,41.432053 36.015030,40.942108 
	C36.007137,40.452168 36.023361,39.960480 36.023361,39.960480 
	C36.023361,39.960480 36.056377,39.519810 36.081997,39.300350 
z"/>
<path fill="#FBFAFE" opacity="1.000000" stroke="none" 
	d="
M35.844410,40.044960 
	C36.023361,39.960480 36.007137,40.452168 35.994125,40.697227 
	C35.797634,40.774902 35.605030,40.615414 35.443642,40.428913 
	C35.425903,40.408417 35.587200,40.233002 35.844410,40.044960 
z"/>
</svg>