<?xml version="1.0" standalone="no"?>
<!DOCTYPE svg PUBLIC "-//W3C//DTD SVG 20010904//EN"
 "http://www.w3.org/TR/2001/REC-SVG-20010904/DTD/svg10.dtd">
<svg version="1.0" xmlns="http://www.w3.org/2000/svg"
 width="291.000000pt" height="76.000000pt" viewBox="0 0 291.000000 76.000000"
 preserveAspectRatio="xMidYMid meet">
<metadata>
Created by potrace 1.16, written by Peter Selinger 2001-2019
</metadata>
<g transform="translate(0.000000,76.000000) scale(0.100000,-0.100000)"
fill="#000000" stroke="none">
<path d="M1757 654 c-10 -11 2 -24 24 -24 18 0 19 -9 19 -195 l0 -195 -25 0
c-16 0 -25 -6 -25 -15 0 -12 18 -15 100 -15 82 0 100 3 100 15 0 8 -9 15 -20
15 -16 0 -20 7 -20 35 0 19 2 35 4 35 2 0 18 -22 35 -50 l31 -50 64 0 c64 0
90 11 62 27 -15 9 -116 163 -116 177 0 20 55 66 78 66 14 0 22 5 20 13 -3 8
-27 12 -73 12 -46 0 -70 -4 -72 -12 -3 -8 5 -13 21 -13 14 0 26 -3 26 -6 0 -4
-17 -28 -37 -53 l-38 -46 -5 140 -5 140 -70 3 c-39 1 -74 0 -78 -4z m123 -219
l0 -195 -30 0 -30 0 0 195 0 195 30 0 30 0 0 -195z"/>
<path d="M867 423 c-53 -58 -94 -110 -91 -115 3 -4 39 -8 80 -8 l74 0 0 -46 0
-45 48 3 47 3 3 43 c3 37 6 42 28 42 31 0 27 24 -4 28 -21 3 -22 8 -22 103 l0
99 -34 0 c-30 0 -43 -11 -129 -107z"/>
<path d="M1230 498 c-62 -17 -110 -78 -110 -138 0 -73 61 -137 139 -147 49 -7
127 28 143 63 17 37 4 38 -30 4 -53 -52 -114 -35 -128 38 l-6 31 83 3 84 3 3
29 c5 40 -16 85 -47 100 -39 20 -92 25 -131 14z"/>
<path d="M1557 496 c-52 -19 -82 -49 -96 -96 -31 -103 65 -208 170 -185 35 8
99 60 99 81 0 20 -14 17 -35 -6 -23 -26 -76 -26 -99 -1 -34 37 -29 150 9 181
19 16 54 5 37 -12 -19 -19 -14 -56 9 -68 45 -24 89 12 74 59 -14 46 -103 70
-168 47z"/>
<path d="M2207 496 c-74 -27 -112 -83 -104 -153 6 -57 30 -91 80 -114 54 -24
111 -24 165 1 76 35 104 142 54 210 -41 55 -128 80 -195 56z m79 -42 c21 -31
24 -157 5 -192 -43 -81 -96 89 -57 183 18 42 30 44 52 9z"/>
<path d="M2457 503 c-12 -11 -8 -21 13 -26 19 -5 20 -14 20 -120 0 -106 -1
-115 -20 -120 -11 -3 -20 -10 -20 -16 0 -7 30 -11 85 -11 69 0 85 3 85 15 0 8
-4 15 -10 15 -15 0 -13 193 2 208 17 17 45 15 52 -4 3 -9 6 -58 6 -109 0 -75
-3 -94 -16 -99 -35 -13 2 -26 76 -26 76 0 116 15 71 27 -20 5 -21 12 -21 108
0 87 -3 106 -20 127 -25 32 -70 41 -120 24 -33 -11 -40 -11 -44 0 -6 15 -126
21 -139 7z"/>
</g>
</svg>
