<svg xmlns="http://www.w3.org/2000/svg" version="1.1" xmlns:xlink="http://www.w3.org/1999/xlink" xmlns:svgjs="http://svgjs.dev/svgjs" width="1000" height="252" viewBox="0 0 1000 252"><g transform="matrix(1,0,0,1,-0.6060606060606233,-0.3063385792268889)"><svg viewBox="0 0 396 100" data-background-color="#ffffff" preserveAspectRatio="xMidYMid meet" height="252" width="1000" xmlns="http://www.w3.org/2000/svg" xmlns:xlink="http://www.w3.org/1999/xlink"><g id="tight-bounds" transform="matrix(1,0,0,1,0.2400000000000091,0.12156292826463755)"><svg viewBox="0 0 395.52 99.75687414347071" height="99.75687414347071" width="395.52"><g><svg viewBox="0 0 565.9384940420202 142.73931817125597" height="99.75687414347071" width="395.52"><g transform="matrix(1,0,0,1,170.4184940420202,42.05793757352573)"><svg viewBox="0 0 395.52 58.62344302420452" height="58.62344302420452" width="395.52"><g id="textblocktransform"><svg viewBox="0 0 395.52 58.62344302420452" height="58.62344302420452" width="395.52" id="textblock"><g><svg viewBox="0 0 395.52 58.62344302420452" height="58.62344302420452" width="395.52"><g transform="matrix(1,0,0,1,0,0)"><svg width="395.52" viewBox="1.9000000953674316 -26.149999618530273 183.8400115966797 27.25" height="58.62344302420452" data-palette-color="#000000"><path d="M22.45-21.95L22.45-21.95Q20.7-22.25 19.07-22.25 17.45-22.25 15.15-21.7L15.15-21.7Q14.4-18.55 14.4-15.55L14.4-15.55Q14.4-7.8 21.3-3.65L21.3-3.65Q25.9-6.7 29.6-11.25L29.6-11.25Q29.75-9.25 29.85-5.15L29.85-5.15Q26.15-2.25 22.3-0.6 18.45 1.05 12.7 1.05L12.7 1.05 11.55 1.05Q7.05-0.9 4.48-4.7 1.9-8.5 1.9-12.7L1.9-12.7Q1.9-18.3 6.5-22.23 11.1-26.15 19.85-26.15L19.85-26.15Q24.75-26.15 30.1-24.9L30.1-24.9Q29.3-21.75 28.1-18.95L28.1-18.95Q24.95-18.65 21.6-18.65L21.6-18.65Q22.1-20.05 22.45-21.95ZM37.75-0.15L37.75-0.15Q33.3-5.85 33.3-11.85 33.3-17.85 38.3-22 43.3-26.15 51.1-26.15L51.1-26.15Q55.25-26.15 59.35-24.9L59.35-24.9Q62.95-20.35 62.95-15.15L62.95-15.15Q62.95-8.6 57.6-3.75 52.25 1.1 44.65 1.1L44.65 1.1Q41.4 1.1 37.75-0.15ZM45.35-21.8L45.35-21.8Q43.6-18.8 43.6-14.75 43.6-10.7 45.37-7.28 47.15-3.85 50.25-2.35L50.25-2.35Q52.6-5.35 52.6-9.3 52.6-13.25 50.67-16.65 48.75-20.05 45.35-21.8ZM97.34-22.7L97.34-22.7Q97.34-24.05 96.95-25L96.95-25 111.2-25Q113-20.2 113.87-13.25 114.75-6.3 114.8 0L114.8 0 103.25 0Q102.9-9 100.3-17.35L100.3-17.35Q95.95-8.85 95.59 0L95.59 0 85.8 0Q84.5-9.8 80.8-17.4L80.8-17.4Q78.09-11.05 78.09-5.6L78.09-5.6Q78.09-2.65 78.8 0L78.8 0 66.65 0Q66.3-2.05 66.3-5.43 66.3-8.8 67.3-12.2L67.3-12.2Q70.84-13.25 74.12-15.65 77.4-18.05 78.95-20.9L78.95-20.9Q77.65-23.05 76.2-25L76.2-25 92-25Q93.9-19.85 94.84-13.8L94.84-13.8Q97.34-18.45 97.34-22.7ZM137.84-14.95L137.84-14.95 142.54-14.65Q143.24-14.65 143.59-14.7L143.59-14.7 141.24-10.3 140.79-10.3Q139.84-10.3 138.09-10.83 136.34-11.35 135.59-11.35L135.59-11.35Q133.54-11.35 132.34-8.7L132.34-8.7Q132.14-6.25 132.04-3.8L132.04-3.8Q134.64-3.3 136.14-3.3L136.14-3.3 136.59-3.3Q138.74-3.3 140.02-4.25 141.29-5.2 141.84-7.65L141.84-7.65 147.84-7.4Q147.09-3.1 145.84 0L145.84 0 121.29 0Q120.29-6.75 120.29-13.4 120.29-20.05 120.99-25L120.99-25 147.79-25Q146.89-19.6 146.19-17.4L146.19-17.4Q143.24-17.25 140.79-17.2L140.79-17.2Q141.19-18.35 141.19-19.35L141.19-19.35Q141.19-21.75 137.59-21.75L137.59-21.75Q136.24-21.75 134.59-21.45L134.59-21.45Q133.49-16.7 132.89-13.1L132.89-13.1Q134.89-14.95 137.84-14.95ZM174.24-21.75L174.24-21.75Q172.94-13.85 172.94-8.85 172.94-3.85 173.34 0L173.34 0 162.44 0Q160.74-7.95 160.74-17.1L160.74-17.1Q160.74-18.65 160.84-21.75L160.84-21.75Q156.59-20.5 155.64-16L155.64-16 150.69-16.3 152.49-25 185.74-25Q184.74-19.5 183.44-16L183.44-16 178.39-16.3Q178.59-17.1 178.59-17.9L178.59-17.9Q178.59-19.85 177.39-20.8 176.19-21.75 174.24-21.75Z" opacity="1" transform="matrix(1,0,0,1,0,0)" fill="#000000" class="undefined-text-0" data-fill-palette-color="primary" id="text-0"></path></svg></g></svg></g></svg></g></svg></g><g><svg viewBox="0 0 142.73931817125597 142.73931817125597" height="142.73931817125597" width="142.73931817125597"><g><svg></svg></g><g id="icon-0"><svg viewBox="0 0 142.73931817125597 142.73931817125597" height="142.73931817125597" width="142.73931817125597"><g><path d="M0 71.37c0-39.416 31.953-71.37 71.37-71.37 39.416 0 71.37 31.953 71.369 71.37 0 39.416-31.953 71.37-71.369 71.369-39.416 0-71.37-31.953-71.37-71.369zM71.37 137.453c36.497 0 66.083-29.586 66.083-66.083 0-36.497-29.586-66.083-66.083-66.083-36.497 0-66.083 29.586-66.083 66.083 0 36.497 29.586 66.083 66.083 66.083z" data-fill-palette-color="accent" fill="#b81edd" stroke="transparent"></path><ellipse rx="70.6559624947717" ry="70.6559624947717" cx="71.36965908562799" cy="71.36965908562799" fill="#b81edd" stroke="transparent" stroke-width="0" fill-opacity="1" data-fill-palette-color="accent"></ellipse></g><g transform="matrix(1,0,0,1,30.068168733328378,34.982760009940606)"><svg viewBox="0 0 82.60298070459922 72.77379815137476" height="72.77379815137476" width="82.60298070459922"><g><svg xmlns="http://www.w3.org/2000/svg" xmlns:xlink="http://www.w3.org/1999/xlink" version="1.1" x="0" y="0" viewBox="6.300000190734863 11.5 87.39999389648438 77" style="enable-background:new 0 0 100 100;" xml:space="preserve" height="72.77379815137476" width="82.60298070459922" class="icon-s-0" data-fill-palette-color="quaternary" id="s-0"><path d="M72.3 12.3L72.3 12.3 72.3 12.3l-0.4-0.8H28.2L6.3 50l21.8 38.5h43.7L93.7 50 72.3 12.3zM33.3 25.3L9.9 47.7l18.6-32.8L33.3 25.3zM70.7 14.8l6.4 35.7L36.9 25.8 70.7 14.8zM35.5 27.3l41 25.2-41 23.3V27.3zM77 54.5l-7.2 30.8-32.6-8.1L77 54.5zM33.5 75L9.9 50.5l23.6-22.7V75zM33.2 77.6l-4.6 7.7L11.5 55.1 33.2 77.6zM35 78.6l31.4 7.9H30.2L35 78.6zM79.3 53.3l11.6-2.5L72.1 84 79.3 53.3zM90.7 48.9l-11.4 2.5-5.9-33.1L90.7 48.9zM35 24.3l-5-10.8h38.2L35 24.3z" fill="#ffffff" data-fill-palette-color="quaternary"></path></svg></g></svg></g></svg></g></svg></g></svg></g><defs></defs></svg><rect width="395.52" height="99.75687414347071" fill="none" stroke="none" visibility="hidden"></rect></g></svg></g></svg>